<svg width="48" height="50" viewBox="0 0 48 50" fill="none" xmlns="http://www.w3.org/2000/svg">
<path d="M16.666 5.10263C16.666 4.59222 16.9976 4.16687 17.3954 4.16687H31.2543C31.6522 4.16687 31.9837 4.59222 31.9837 5.10263V10.5471H16.666V5.10263Z" stroke="#F5F7F9" stroke-width="0.4"/>
<path d="M44.2497 9.35946H33.3643V5.69279C33.3643 3.74487 31.7601 2.198 29.8695 2.198H17.8955C15.9476 2.198 14.4007 3.80216 14.4007 5.69279V9.35946H3.5153C2.71322 9.35946 2.08301 9.98967 2.08301 10.7917C2.08301 11.5938 2.71322 12.224 3.5153 12.224H6.78092L9.47363 42.5313C9.76009 45.4532 12.1663 47.6303 15.0882 47.6303H32.4476C35.3695 47.6303 37.7184 45.4532 38.0622 42.5886L41.0413 12.224H44.3643C45.1663 12.224 45.7965 11.5938 45.7965 10.7917C45.7965 9.98967 45.0518 9.35946 44.2497 9.35946ZM17.208 5.69279C17.208 5.34904 17.4945 5.06258 17.8382 5.06258H29.8122C30.1559 5.06258 30.4424 5.34904 30.4424 5.69279V9.35946H17.208V5.69279ZM35.1403 42.3022C35.0257 43.7345 33.8226 44.7657 32.3903 44.7657H15.0309C13.5986 44.7657 12.4528 43.6772 12.2809 42.2449L9.58822 12.224H38.0622L35.1403 42.3022Z" fill="#D74651" stroke="#D74651" stroke-width="0.4"/>
<line x1="17.666" y1="16.6666" x2="17.666" y2="40" stroke="#D74651" stroke-width="4"/>
<line x1="30.332" y1="16.6666" x2="30.332" y2="40" stroke="#D74651" stroke-width="4"/>
</svg>
