<svg width="21" height="21" viewBox="0 0 21 21" fill="none" xmlns="http://www.w3.org/2000/svg">
<path d="M18.2927 1.90388C17.1087 0.722794 15.1924 0.722794 14.0087 1.90388L1.99985 13.9128C1.91781 13.9951 1.85813 14.0971 1.8271 14.2088L0.248195 19.9094C0.183251 20.1432 0.249247 20.3935 0.420678 20.5652C0.592373 20.7366 0.842683 20.8026 1.07643 20.7379L6.77705 19.1588C6.88906 19.1277 6.99134 19.0681 7.07364 18.9858L7.11176 18.9474L19.082 6.97715C20.2649 5.79448 20.2649 3.87692 19.082 2.69426L18.2927 1.90388ZM2.83308 15.621L5.36484 18.1531L1.8626 19.1233L2.83308 15.621ZM6.63612 18.472V18.4715L7.07495 18.9103L6.63612 18.472ZM6.63612 17.5202L3.46622 14.3503L13.2946 4.52189L16.4642 7.69127L6.63612 17.5202ZM18.1302 6.02534L17.4161 6.73946L14.2467 3.56982L14.9608 2.8557C15.6181 2.19968 16.6827 2.19968 17.3403 2.8557L18.1302 3.64633C18.7875 4.30313 18.7875 5.36853 18.1302 6.02534Z" fill="#2168F3" stroke="#2168F3" stroke-width="0.3"/>
</svg>