<svg width="50" height="50" viewBox="0 0 50 50" fill="none" xmlns="http://www.w3.org/2000/svg">
<path d="M9.85915 43.1591C12.8039 43.1591 15.1911 40.7719 15.1911 37.8271C15.1911 34.8823 12.8039 32.4951 9.85915 32.4951C6.91437 32.4951 4.52716 34.8823 4.52716 37.8271C4.52716 40.7719 6.91437 43.1591 9.85915 43.1591Z" fill="#2168F3" fill-opacity="0.6"/>
<path d="M44.1649 38.4303C46.7208 38.4303 48.7927 36.3584 48.7927 33.8026C48.7927 31.2467 46.7208 29.1748 44.1649 29.1748C41.6091 29.1748 39.5372 31.2467 39.5372 33.8026C39.5372 36.3584 41.6091 38.4303 44.1649 38.4303Z" fill="#2168F3" fill-opacity="0.3"/>
<path d="M39.9397 15.0907C42.051 15.0907 43.7626 13.3791 43.7626 11.2678C43.7626 9.15641 42.051 7.44482 39.9397 7.44482C37.8283 7.44482 36.1168 9.15641 36.1168 11.2678C36.1168 13.3791 37.8283 15.0907 39.9397 15.0907Z" fill="#2168F3" fill-opacity="0.1"/>
<path d="M5.65845 30.1436C8.78353 30.1436 11.3169 27.672 11.3169 24.6231C11.3169 21.5742 8.78353 19.1025 5.65845 19.1025C2.53337 19.1025 0 21.5742 0 24.6231C0 27.672 2.53337 30.1436 5.65845 30.1436Z" fill="#2168F3" fill-opacity="0.7"/>
<path d="M21.9136 50.0002C24.7546 50.0002 27.0577 47.756 27.0577 44.9877C27.0577 42.2193 24.7546 39.9751 21.9136 39.9751C19.0726 39.9751 16.7695 42.2193 16.7695 44.9877C16.7695 47.756 19.0726 50.0002 21.9136 50.0002Z" fill="#2168F3" fill-opacity="0.5"/>
<path d="M35.1338 47.8041C37.8327 47.8041 40.0206 45.6738 40.0206 43.0458C40.0206 40.4179 37.8327 38.2876 35.1338 38.2876C32.4349 38.2876 30.2469 40.4179 30.2469 43.0458C30.2469 45.6738 32.4349 47.8041 35.1338 47.8041Z" fill="#2168F3" fill-opacity="0.4"/>
<path d="M11.7799 17.3226C15.047 17.3226 17.6955 14.7374 17.6955 11.5483C17.6955 8.35919 15.047 5.77393 11.7799 5.77393C8.51282 5.77393 5.86432 8.35919 5.86432 11.5483C5.86432 14.7374 8.51282 17.3226 11.7799 17.3226Z" fill="#2168F3" fill-opacity="0.8"/>
<path d="M45.6276 26.07C48.0424 26.07 50 24.1487 50 21.7786C50 19.4086 48.0424 17.4873 45.6276 17.4873C43.2127 17.4873 41.2551 19.4086 41.2551 21.7786C41.2551 24.1487 43.2127 26.07 45.6276 26.07Z" fill="#2168F3" fill-opacity="0.2"/>
<path d="M26.4587 12.4748C29.9036 12.4748 32.6962 9.68226 32.6962 6.23742C32.6962 2.79259 29.9036 0 26.4587 0C23.0139 0 20.2213 2.79259 20.2213 6.23742C20.2213 9.68226 23.0139 12.4748 26.4587 12.4748Z" fill="#2168F3"/>
</svg>
